<svg xmlns="http://www.w3.org/2000/svg" version="1.1" xmlns:xlink="http://www.w3.org/1999/xlink" xmlns:svgjs="http://svgjs.dev/svgjs" width="128" height="128" viewBox="0 0 128 128"><g transform="matrix(0.8046875,0,0,0.8046875,12.333870967741937,12.333870967741937)"><svg viewBox="0 0 155 155" data-background-color="#ffffff" preserveAspectRatio="xMidYMid meet" height="128" width="128" xmlns="http://www.w3.org/2000/svg" xmlns:xlink="http://www.w3.org/1999/xlink"><g id="tight-bounds" transform="matrix(1,0,0,1,0.25,0.25)"><svg viewBox="0 0 154.5 154.5" height="154.5" width="154.5"><g><svg></svg></g><g><svg viewBox="0 0 154.5 154.5" height="154.5" width="154.5"><g transform="matrix(1,0,0,1,39.0576,53.968356145803895)"><svg viewBox="0 0 76.3848 46.5632877083922" height="46.5632877083922" width="76.3848"><g><svg viewBox="0 0 76.3848 46.5632877083922" height="46.5632877083922" width="76.3848"><g><svg viewBox="0 0 76.3848 46.5632877083922" height="46.5632877083922" width="76.3848"><g><svg viewBox="0 0 76.3848 46.5632877083922" height="46.5632877083922" width="76.3848"><g><svg viewBox="0 0 76.3848 46.5632877083922" height="46.5632877083922" width="76.3848"><g transform="matrix(1,0,0,1,0,0)"><svg width="76.3848" viewBox="0.34375 -40 66.35625 40.45" height="46.5632877083922" data-palette-color="#61777f"><path d="M28.15-1.2L17.15-34.8 6.2-1.2 6.2-1.25Q5.9-0.5 5.38-0.03 4.85 0.45 4.1 0.45L4.1 0.45Q3.7 0.45 3.33 0.38 2.95 0.3 2.55 0.2L2.55 0.2 2.6 0.2Q-0.25-0.7 0.5-3L0.5-3 11.9-37.65Q12.15-38.45 12.78-39 13.4-39.55 14.25-39.65L14.25-39.65Q15.1-39.8 15.9-39.88 16.7-39.95 17.15-39.95L17.15-39.95Q17.6-39.95 18.4-39.88 19.2-39.8 20.05-39.7L20.05-39.7Q20.75-39.6 21.43-38.95 22.1-38.3 22.45-37.65L22.45-37.65Q25.25-29.05 28.13-20.33 31-11.6 33.8-3L33.8-3Q34.5-0.7 31.7 0.2L31.7 0.2Q31.3 0.3 30.98 0.38 30.65 0.45 30.25 0.45L30.25 0.45Q29.55 0.45 28.98-0.03 28.4-0.5 28.15-1.25L28.15-1.25 28.15-1.2ZM20.9-12L20.9-12Q20.9-10.4 19.78-9.28 18.65-8.15 17.05-8.15L17.05-8.15Q15.45-8.15 14.35-9.28 13.25-10.4 13.25-12L13.25-12Q13.25-13.6 14.35-14.73 15.45-15.85 17.05-15.85L17.05-15.85Q18.65-15.85 19.78-14.73 20.9-13.6 20.9-12ZM44.2-21.2L59.45-39.1Q60.2-40 61.15-40L61.15-40Q62.2-40 63.3-39.05L63.3-39.05Q63.85-38.5 64.22-37.95 64.6-37.4 64.6-36.85L64.6-36.85Q64.6-35.95 63.95-35.3L63.95-35.3 57.25-27.5 44.2-12.15 44.2-2.1Q44.2 0.3 41.2 0.3L41.2 0.3Q38.25 0.3 38.25-2.1L38.25-2.1 38.25-37.55Q38.25-39.95 41.2-39.95L41.2-39.95Q44.2-39.95 44.2-37.55L44.2-37.55 44.2-21.2ZM61.85-1.5L52.35-15.35Q51.85-16.05 51.85-17.05L51.85-17.05Q51.85-18.55 53.1-19.45L53.1-19.45 53.05-19.45Q54.05-20.15 55.05-20.15L55.05-20.15Q56-20.15 56.65-19.05L56.65-19.05 66.3-4.95 66.25-5Q66.7-4.3 66.7-3.5L66.7-3.5Q66.7-2.2 65.4-1.2L65.4-1.2 65.45-1.2Q64.9-0.85 64.4-0.65 63.9-0.45 63.5-0.45L63.5-0.45Q63.1-0.45 62.67-0.75 62.25-1.05 61.85-1.5L61.85-1.5Z" opacity="1" transform="matrix(1,0,0,1,0,0)" fill="#ffffff" class="undefined-text-0" data-fill-palette-color="primary" id="text-0"></path></svg></g></svg></g></svg></g></svg></g></svg></g></svg></g><g mask="url(#5383e295-cbf6-49fe-b368-1d3736e2d516)"><g transform="matrix(1.8376725261244338, 0, 0, 1.8376725261244338, 3.607570062197368, 1)"><svg xmlns="http://www.w3.org/2000/svg" xmlns:xlink="http://www.w3.org/1999/xlink" version="1.1" x="0" y="0" viewBox="10.152499407921074 8.714594367574609 80.14750059207894 82.9854056324254" style="enable-background:new 0 0 100 100;" xml:space="preserve" height="82.9854056324254" width="80.14750059207894" class="icon-none" data-fill-palette-color="accent" id="none"><path d="M69.4 91.7H44.7c-7.6 0-14.6-4.1-18.3-10.8L12.8 56.3c-2.8-5-3.4-10.8-1.7-16.3 1.7-5.5 5.4-9.9 10.6-12.5l33-16.6c8.2-4.1 18.3-2.3 24.6 4.3l5.3 5.7c3.7 3.9 5.7 9 5.7 14.3v35.5C90.3 82.3 80.9 91.7 69.4 91.7zM64 11.7c-2.7 0-5.5 0.6-8 1.9L23 30.2c-4.4 2.2-7.6 6-9 10.7s-0.9 9.6 1.4 13.9l13.6 24.6c3.1 5.7 9.1 9.2 15.6 9.2h24.7c9.9 0 17.9-8 17.9-17.9V35.3c0-4.6-1.7-8.9-4.9-12.2l-5.3-5.7C73.6 13.7 68.8 11.7 64 11.7z" fill="#ffffff" data-fill-palette-color="accent"></path></svg></g></g></svg></g><defs><mask id="5383e295-cbf6-49fe-b368-1d3736e2d516"><rect width="250" height="250" fill="white"></rect><rect width="84.02328" height="68.54823712648499" fill="black" x="82.98836" y="90.7258814367575" id="transform-me" transform="matrix(1,0,0,1,-47.75,-47.75)"></rect></mask></defs></svg><rect width="154.5" height="154.5" fill="none" stroke="none" visibility="hidden"></rect></g></svg></g></svg>